<svg viewBox="0 0 28 27.99" xmlns="http://www.w3.org/2000/svg">
    <defs>
        <style>.cls-1{fill:#231f20;}.cls-2{fill:#fff100;}</style>
    </defs>
    <title>icon-location-transport-dublin-bus</title>
    <g data-name="Layer 2" id="Layer_2">
        <g data-name="Layer 1" id="Layer_1-2">
            <path class="cls-1" d="M28,14A14,14,0,1,0,14,28,14,14,0,0,0,28,14" />
            <path class="cls-2"
                d="M13,11.95V10.74A2,2,0,0,1,14,9a2,2,0,0,1,1,1.72v1.21Zm4,2h2.25a.42.42,0,0,1,.38.21l1.79,3.14a.42.42,0,0,1-.15.57l-.2.06H17Zm0-4,2-2V6H17V8H15V6H13V8H11V6H9V8l2,2v2H8.78a2.4,2.4,0,0,0-2.11,1.21L4.87,16.3a2.41,2.41,0,0,0,2.06,3.62H12a1,1,0,0,0,1-1v-5h2v5a1,1,0,0,0,1,1h5.08a2.41,2.41,0,0,0,2.07-3.62l-1.79-3.14A2.41,2.41,0,0,0,19.24,12H17Zm-6,8H6.94l-.18-.06a.42.42,0,0,1-.15-.57l1.8-3.14a.41.41,0,0,1,.36-.2H11Z" />
        </g>
    </g>
</svg>